<mxfile host="app.diagrams.net" modified="2023-03-31T10:37:33.527Z" agent="5.0 (Windows NT 10.0; Win64; x64) AppleWebKit/537.36 (KHTML, like Gecko) Chrome/111.0.0.0 Safari/537.36" etag="tDm7YfnqQHQK8lRpLlsC" version="21.0.10" type="github">
  <diagram name="Page-1" id="97916047-d0de-89f5-080d-49f4d83e522f">
    <mxGraphModel dx="1588" dy="940" grid="1" gridSize="10" guides="1" tooltips="1" connect="1" arrows="1" fold="1" page="1" pageScale="1.5" pageWidth="1169" pageHeight="827" background="none" math="0" shadow="0">
      <root>
        <mxCell id="0" />
        <mxCell id="1" parent="0" />
        <mxCell id="2" value="ReplicaSets" style="rounded=1;fillColor=#10739E;strokeColor=none;shadow=1;gradientColor=none;fontStyle=1;fontColor=#FFFFFF;fontSize=14;" parent="1" vertex="1">
          <mxGeometry x="672" y="200" width="200" height="50" as="geometry" />
        </mxCell>
        <mxCell id="3" value="StateFulSets" style="rounded=1;fillColor=#10739E;strokeColor=none;shadow=1;gradientColor=none;fontStyle=1;fontColor=#FFFFFF;fontSize=14;" parent="1" vertex="1">
          <mxGeometry x="860" y="60" width="220" height="60" as="geometry" />
        </mxCell>
        <mxCell id="33" value="" style="edgeStyle=elbowEdgeStyle;elbow=vertical;strokeWidth=4;endArrow=block;endFill=1;fontStyle=1;dashed=1;strokeColor=#23445D;" parent="1" source="2" edge="1">
          <mxGeometry x="22" y="165.5" width="100" height="100" as="geometry">
            <mxPoint x="22" y="265.5" as="sourcePoint" />
            <mxPoint x="1372" y="455.5" as="targetPoint" />
            <Array as="points">
              <mxPoint x="940" y="250" />
              <mxPoint x="1060" y="296" />
            </Array>
          </mxGeometry>
        </mxCell>
        <mxCell id="38" value="" style="edgeStyle=elbowEdgeStyle;elbow=vertical;strokeWidth=4;endArrow=block;endFill=1;fontStyle=1;strokeColor=#23445D;" parent="1" target="9" edge="1">
          <mxGeometry x="62" y="165.5" width="100" height="100" as="geometry">
            <mxPoint x="510" y="530" as="sourcePoint" />
            <mxPoint x="162" y="165.5" as="targetPoint" />
          </mxGeometry>
        </mxCell>
        <mxCell id="39" value="" style="edgeStyle=elbowEdgeStyle;elbow=vertical;strokeWidth=4;endArrow=block;endFill=1;fontStyle=1;strokeColor=#23445D;" parent="1" target="10" edge="1">
          <mxGeometry x="62" y="175.5" width="100" height="100" as="geometry">
            <mxPoint x="510" y="620" as="sourcePoint" />
            <mxPoint x="162" y="175.5" as="targetPoint" />
          </mxGeometry>
        </mxCell>
        <mxCell id="40" value="" style="edgeStyle=elbowEdgeStyle;elbow=vertical;strokeWidth=4;endArrow=block;endFill=1;fontStyle=1;strokeColor=#23445D;" parent="1" target="11" edge="1">
          <mxGeometry x="62" y="185.5" width="100" height="100" as="geometry">
            <mxPoint x="510" y="710" as="sourcePoint" />
            <mxPoint x="162" y="185.5" as="targetPoint" />
          </mxGeometry>
        </mxCell>
        <mxCell id="41" value="" style="edgeStyle=elbowEdgeStyle;elbow=vertical;strokeWidth=4;endArrow=block;endFill=1;fontStyle=1;strokeColor=#23445D;" parent="1" target="12" edge="1">
          <mxGeometry x="62" y="195.5" width="100" height="100" as="geometry">
            <mxPoint x="510" y="810" as="sourcePoint" />
            <mxPoint x="162" y="195.5" as="targetPoint" />
          </mxGeometry>
        </mxCell>
        <mxCell id="42" value="" style="edgeStyle=elbowEdgeStyle;elbow=vertical;strokeWidth=4;endArrow=block;endFill=1;fontStyle=1;strokeColor=#23445D;" parent="1" target="14" edge="1">
          <mxGeometry x="62" y="165.5" width="100" height="100" as="geometry">
            <mxPoint x="910" y="540" as="sourcePoint" />
            <mxPoint x="162" y="165.5" as="targetPoint" />
          </mxGeometry>
        </mxCell>
        <mxCell id="43" value="" style="edgeStyle=elbowEdgeStyle;elbow=vertical;strokeWidth=4;endArrow=block;endFill=1;fontStyle=1;strokeColor=#23445D;" parent="1" target="15" edge="1">
          <mxGeometry x="62" y="175.5" width="100" height="100" as="geometry">
            <mxPoint x="910" y="640" as="sourcePoint" />
            <mxPoint x="162" y="175.5" as="targetPoint" />
          </mxGeometry>
        </mxCell>
        <mxCell id="44" value="" style="edgeStyle=elbowEdgeStyle;elbow=vertical;strokeWidth=4;endArrow=block;endFill=1;fontStyle=1;strokeColor=#23445D;" parent="1" target="16" edge="1">
          <mxGeometry x="62" y="185.5" width="100" height="100" as="geometry">
            <mxPoint x="910" y="740" as="sourcePoint" />
            <mxPoint x="162" y="185.5" as="targetPoint" />
          </mxGeometry>
        </mxCell>
        <mxCell id="46" value="" style="edgeStyle=elbowEdgeStyle;elbow=vertical;strokeWidth=4;endArrow=block;endFill=1;fontStyle=1;strokeColor=#23445D;" parent="1" target="19" edge="1">
          <mxGeometry x="72" y="165.5" width="100" height="100" as="geometry">
            <mxPoint x="950" y="670" as="sourcePoint" />
            <mxPoint x="172" y="165.5" as="targetPoint" />
          </mxGeometry>
        </mxCell>
        <mxCell id="47" value="" style="edgeStyle=elbowEdgeStyle;elbow=vertical;strokeWidth=4;endArrow=block;endFill=1;fontStyle=1;strokeColor=#23445D;" parent="1" target="20" edge="1">
          <mxGeometry x="72" y="175.5" width="100" height="100" as="geometry">
            <mxPoint x="941.9999999999995" y="765.5" as="sourcePoint" />
            <mxPoint x="172" y="175.5" as="targetPoint" />
          </mxGeometry>
        </mxCell>
        <mxCell id="48" value="" style="edgeStyle=elbowEdgeStyle;elbow=vertical;strokeWidth=4;endArrow=block;endFill=1;fontStyle=1;strokeColor=#23445D;" parent="1" target="21" edge="1">
          <mxGeometry x="72" y="185.5" width="100" height="100" as="geometry">
            <mxPoint x="941.9999999999995" y="855.5" as="sourcePoint" />
            <mxPoint x="172" y="185.5" as="targetPoint" />
          </mxGeometry>
        </mxCell>
        <mxCell id="49" value="" style="edgeStyle=elbowEdgeStyle;elbow=vertical;strokeWidth=4;endArrow=block;endFill=1;fontStyle=1;strokeColor=#23445D;" parent="1" target="22" edge="1">
          <mxGeometry x="72" y="195.5" width="100" height="100" as="geometry">
            <mxPoint x="941.9999999999995" y="945.5" as="sourcePoint" />
            <mxPoint x="172" y="195.5" as="targetPoint" />
          </mxGeometry>
        </mxCell>
        <mxCell id="50" value="" style="edgeStyle=elbowEdgeStyle;elbow=vertical;strokeWidth=4;endArrow=block;endFill=1;fontStyle=1;strokeColor=#23445D;" parent="1" target="24" edge="1">
          <mxGeometry x="72" y="165.5" width="100" height="100" as="geometry">
            <mxPoint x="1192.0000000000005" y="675.5" as="sourcePoint" />
            <mxPoint x="172" y="165.5" as="targetPoint" />
          </mxGeometry>
        </mxCell>
        <mxCell id="53" value="" style="edgeStyle=elbowEdgeStyle;elbow=vertical;strokeWidth=4;endArrow=block;endFill=1;fontStyle=1;strokeColor=#23445D;" parent="1" target="27" edge="1">
          <mxGeometry x="72" y="195.5" width="100" height="100" as="geometry">
            <mxPoint x="1192.0000000000005" y="945.5" as="sourcePoint" />
            <mxPoint x="172" y="195.5" as="targetPoint" />
          </mxGeometry>
        </mxCell>
        <mxCell id="KgZWAgX5CuyF-5SO7iqZ-55" value="Deployments" style="rounded=1;fillColor=#10739E;strokeColor=none;shadow=1;gradientColor=none;fontStyle=1;fontColor=#FFFFFF;fontSize=14;" vertex="1" parent="1">
          <mxGeometry x="472" y="70" width="200" height="60" as="geometry" />
        </mxCell>
        <mxCell id="KgZWAgX5CuyF-5SO7iqZ-59" value="" style="edgeStyle=elbowEdgeStyle;elbow=vertical;strokeWidth=4;endArrow=block;endFill=1;fontStyle=1;strokeColor=#23445D;exitX=0.5;exitY=1;exitDx=0;exitDy=0;entryX=0.25;entryY=0;entryDx=0;entryDy=0;" edge="1" parent="1" source="KgZWAgX5CuyF-5SO7iqZ-55" target="2">
          <mxGeometry x="32" y="175.5" width="100" height="100" as="geometry">
            <mxPoint x="782" y="276" as="sourcePoint" />
            <mxPoint x="780" y="180" as="targetPoint" />
            <Array as="points" />
          </mxGeometry>
        </mxCell>
        <mxCell id="KgZWAgX5CuyF-5SO7iqZ-86" value="ViSuite Mgmt Services" style="rounded=1;fillColor=#10739E;strokeColor=none;shadow=1;gradientColor=none;fontStyle=1;fontColor=#FFFFFF;fontSize=14;" vertex="1" parent="1">
          <mxGeometry x="690" y="530" width="200" height="60" as="geometry" />
        </mxCell>
        <mxCell id="KgZWAgX5CuyF-5SO7iqZ-87" value="" style="edgeStyle=elbowEdgeStyle;elbow=vertical;strokeWidth=4;endArrow=block;endFill=1;fontStyle=1;strokeColor=#23445D;exitX=0.5;exitY=1;exitDx=0;exitDy=0;entryX=0.684;entryY=0.015;entryDx=0;entryDy=0;entryPerimeter=0;" edge="1" parent="1" source="3" target="2">
          <mxGeometry x="316" y="195.5" width="100" height="100" as="geometry">
            <mxPoint x="856" y="150" as="sourcePoint" />
            <mxPoint x="802" y="170" as="targetPoint" />
            <Array as="points" />
          </mxGeometry>
        </mxCell>
        <mxCell id="KgZWAgX5CuyF-5SO7iqZ-88" value="" style="shape=ext;double=1;whiteSpace=wrap;html=1;aspect=fixed;" vertex="1" parent="1">
          <mxGeometry x="540" y="1000" width="500" height="500" as="geometry" />
        </mxCell>
        <mxCell id="KgZWAgX5CuyF-5SO7iqZ-89" value="ViSuite PS Pods" style="rounded=1;fillColor=#10739E;strokeColor=none;shadow=1;gradientColor=none;fontStyle=1;fontColor=#FFFFFF;fontSize=14;" vertex="1" parent="1">
          <mxGeometry x="570" y="1050" width="200" height="60" as="geometry" />
        </mxCell>
        <mxCell id="KgZWAgX5CuyF-5SO7iqZ-90" value="ViSuite Management Pods" style="rounded=1;fillColor=#10739E;strokeColor=none;shadow=1;gradientColor=none;fontStyle=1;fontColor=#FFFFFF;fontSize=14;" vertex="1" parent="1">
          <mxGeometry x="800" y="1050" width="200" height="60" as="geometry" />
        </mxCell>
        <mxCell id="KgZWAgX5CuyF-5SO7iqZ-94" value="" style="edgeStyle=elbowEdgeStyle;elbow=vertical;strokeWidth=4;endArrow=block;endFill=1;fontStyle=1;dashed=1;strokeColor=#23445D;entryX=-0.015;entryY=0.132;entryDx=0;entryDy=0;entryPerimeter=0;" edge="1" parent="1">
          <mxGeometry x="32" y="175.5" width="100" height="100" as="geometry">
            <mxPoint x="900" y="570" as="sourcePoint" />
            <mxPoint x="1305.5" y="604.8800000000001" as="targetPoint" />
            <Array as="points">
              <mxPoint x="1070" y="570" />
              <mxPoint x="1070" y="306" />
            </Array>
          </mxGeometry>
        </mxCell>
        <mxCell id="KgZWAgX5CuyF-5SO7iqZ-95" value="&#xa;&lt;span style=&quot;font-size:12.0pt;line-height:107%;&#xa;font-family:&amp;quot;Times New Roman&amp;quot;,serif;mso-fareast-font-family:&amp;quot;Times New Roman&amp;quot;;&#xa;letter-spacing:-.05pt;mso-ansi-language:EN-IN;mso-fareast-language:EN-IN;&#xa;mso-bidi-language:AR-SA&quot;&gt;visuite-nodemanager&lt;/span&gt;&#xa;&#xa;&#xa;&#xa;" style="shape=ext;double=1;rounded=1;whiteSpace=wrap;html=1;" vertex="1" parent="1">
          <mxGeometry x="1280" y="610" width="210" height="550" as="geometry" />
        </mxCell>
        <mxCell id="KgZWAgX5CuyF-5SO7iqZ-99" value="visuite-management-server&amp;nbsp;" style="label;whiteSpace=wrap;html=1;image=img/clipart/Gear_128x128.png" vertex="1" parent="1">
          <mxGeometry x="1315" y="630" width="140" height="60" as="geometry" />
        </mxCell>
        <mxCell id="KgZWAgX5CuyF-5SO7iqZ-100" value="visuite-authentication" style="label;whiteSpace=wrap;html=1;image=img/clipart/Gear_128x128.png" vertex="1" parent="1">
          <mxGeometry x="1320" y="710" width="140" height="60" as="geometry" />
        </mxCell>
        <mxCell id="KgZWAgX5CuyF-5SO7iqZ-101" value="visuite-documentstore" style="label;whiteSpace=wrap;html=1;image=img/clipart/Gear_128x128.png" vertex="1" parent="1">
          <mxGeometry x="1310" y="790" width="150" height="60" as="geometry" />
        </mxCell>
        <mxCell id="KgZWAgX5CuyF-5SO7iqZ-102" value="visuite-live-video-server" style="label;whiteSpace=wrap;html=1;image=img/clipart/Gear_128x128.png" vertex="1" parent="1">
          <mxGeometry x="1310" y="860" width="150" height="60" as="geometry" />
        </mxCell>
        <mxCell id="KgZWAgX5CuyF-5SO7iqZ-103" value="visuite-live-video-server" style="label;whiteSpace=wrap;html=1;image=img/clipart/Gear_128x128.png" vertex="1" parent="1">
          <mxGeometry x="1310" y="930" width="150" height="60" as="geometry" />
        </mxCell>
        <mxCell id="KgZWAgX5CuyF-5SO7iqZ-104" value="visuite-nodemanager" style="label;whiteSpace=wrap;html=1;image=img/clipart/Gear_128x128.png" vertex="1" parent="1">
          <mxGeometry x="1310" y="1000" width="150" height="60" as="geometry" />
        </mxCell>
        <mxCell id="KgZWAgX5CuyF-5SO7iqZ-107" value="visuite-xml-api" style="label;whiteSpace=wrap;html=1;image=img/clipart/Gear_128x128.png" vertex="1" parent="1">
          <mxGeometry x="1300" y="1080" width="150" height="60" as="geometry" />
        </mxCell>
        <mxCell id="KgZWAgX5CuyF-5SO7iqZ-108" value="ViSuite UI Services" style="rounded=1;fillColor=#10739E;strokeColor=none;shadow=1;gradientColor=none;fontStyle=1;fontColor=#FFFFFF;fontSize=14;" vertex="1" parent="1">
          <mxGeometry x="690" y="450" width="200" height="60" as="geometry" />
        </mxCell>
        <mxCell id="KgZWAgX5CuyF-5SO7iqZ-110" value="" style="edgeStyle=elbowEdgeStyle;elbow=vertical;strokeWidth=4;endArrow=block;endFill=1;fontStyle=1;dashed=1;strokeColor=#23445D;" edge="1" parent="1" target="KgZWAgX5CuyF-5SO7iqZ-111">
          <mxGeometry x="22" y="80.62" width="100" height="100" as="geometry">
            <mxPoint x="890" y="475.12" as="sourcePoint" />
            <mxPoint x="1370" y="490" as="targetPoint" />
            <Array as="points">
              <mxPoint x="1060" y="475.12" />
              <mxPoint x="1060" y="211.12" />
            </Array>
          </mxGeometry>
        </mxCell>
        <mxCell id="KgZWAgX5CuyF-5SO7iqZ-111" value="" style="shape=ext;double=1;rounded=1;whiteSpace=wrap;html=1;" vertex="1" parent="1">
          <mxGeometry x="1320" y="500" width="180" height="80" as="geometry" />
        </mxCell>
        <mxCell id="KgZWAgX5CuyF-5SO7iqZ-112" value="visuite-evolution" style="label;whiteSpace=wrap;html=1;image=img/clipart/Gear_128x128.png" vertex="1" parent="1">
          <mxGeometry x="1340" y="510" width="140" height="60" as="geometry" />
        </mxCell>
        <mxCell id="KgZWAgX5CuyF-5SO7iqZ-113" value="" style="shape=ext;double=1;rounded=1;whiteSpace=wrap;html=1;" vertex="1" parent="1">
          <mxGeometry x="550" y="280" width="420" height="80" as="geometry" />
        </mxCell>
        <mxCell id="KgZWAgX5CuyF-5SO7iqZ-115" value="" style="strokeColor=#dddddd;fillColor=#ffffff;shadow=1;strokeWidth=1;rounded=1;absoluteArcSize=1;arcSize=2;fontSize=10;fontColor=#9E9E9E;align=center;html=1;" vertex="1" parent="1">
          <mxGeometry x="580" y="300" width="160" height="40" as="geometry" />
        </mxCell>
        <mxCell id="KgZWAgX5CuyF-5SO7iqZ-116" value="&lt;font color=&quot;#000000&quot;&gt;ConfigMaps&lt;/font&gt;" style="dashed=0;connectable=0;html=1;fillColor=#5184F3;strokeColor=none;shape=mxgraph.gcp2.hexIcon;prIcon=bigquery;part=1;labelPosition=right;verticalLabelPosition=middle;align=left;verticalAlign=middle;spacingLeft=5;fontColor=#999999;fontSize=12;" vertex="1" parent="KgZWAgX5CuyF-5SO7iqZ-115">
          <mxGeometry y="0.5" width="44" height="39" relative="1" as="geometry">
            <mxPoint x="5" y="-19.5" as="offset" />
          </mxGeometry>
        </mxCell>
        <mxCell id="KgZWAgX5CuyF-5SO7iqZ-117" value="" style="strokeColor=#dddddd;fillColor=#ffffff;shadow=1;strokeWidth=1;rounded=1;absoluteArcSize=1;arcSize=2;fontSize=10;fontColor=#9E9E9E;align=center;html=1;" vertex="1" parent="1">
          <mxGeometry x="770" y="300" width="160" height="40" as="geometry" />
        </mxCell>
        <mxCell id="KgZWAgX5CuyF-5SO7iqZ-118" value="&lt;font color=&quot;#000000&quot;&gt;Secrets&lt;/font&gt;" style="dashed=0;connectable=0;html=1;fillColor=#5184F3;strokeColor=none;shape=mxgraph.gcp2.hexIcon;prIcon=bigquery;part=1;labelPosition=right;verticalLabelPosition=middle;align=left;verticalAlign=middle;spacingLeft=5;fontColor=#999999;fontSize=12;" vertex="1" parent="KgZWAgX5CuyF-5SO7iqZ-117">
          <mxGeometry y="0.5" width="44" height="39" relative="1" as="geometry">
            <mxPoint x="5" y="-19.5" as="offset" />
          </mxGeometry>
        </mxCell>
        <mxCell id="KgZWAgX5CuyF-5SO7iqZ-119" value="" style="edgeStyle=elbowEdgeStyle;elbow=vertical;strokeWidth=4;endArrow=block;endFill=1;fontStyle=1;dashed=1;strokeColor=#23445D;" edge="1" parent="1">
          <mxGeometry x="230" y="5.5" width="100" height="100" as="geometry">
            <mxPoint x="1080" y="90" as="sourcePoint" />
            <mxPoint x="1300" y="130" as="targetPoint" />
            <Array as="points">
              <mxPoint x="1350" y="90" />
              <mxPoint x="1268" y="136" />
            </Array>
          </mxGeometry>
        </mxCell>
        <mxCell id="KgZWAgX5CuyF-5SO7iqZ-120" value="" style="shape=ext;double=1;rounded=1;whiteSpace=wrap;html=1;" vertex="1" parent="1">
          <mxGeometry x="1200" y="130" width="310" height="80" as="geometry" />
        </mxCell>
        <mxCell id="KgZWAgX5CuyF-5SO7iqZ-124" value="Volume MountsStorage" style="html=1;whiteSpace=wrap;shape=isoCube2;backgroundOutline=1;isoAngle=15;" vertex="1" parent="1">
          <mxGeometry x="710" y="1130" width="115" height="100" as="geometry" />
        </mxCell>
        <mxCell id="KgZWAgX5CuyF-5SO7iqZ-128" value="PersistentVolumeClaims" style="rounded=1;fillColor=#10739E;strokeColor=none;shadow=1;gradientColor=none;fontStyle=1;fontColor=#FFFFFF;fontSize=14;" vertex="1" parent="1">
          <mxGeometry x="677" y="1250" width="200" height="60" as="geometry" />
        </mxCell>
        <mxCell id="KgZWAgX5CuyF-5SO7iqZ-130" value="" style="shape=doubleArrow;direction=south;whiteSpace=wrap;html=1;" vertex="1" parent="1">
          <mxGeometry x="758" y="370" width="60" height="70" as="geometry" />
        </mxCell>
        <mxCell id="KgZWAgX5CuyF-5SO7iqZ-131" value="visuite-pn -Main Processing Services for Visuite" style="label;whiteSpace=wrap;html=1;image=img/clipart/Gear_128x128.png" vertex="1" parent="1">
          <mxGeometry x="1270" y="140" width="190" height="60" as="geometry" />
        </mxCell>
        <mxCell id="KgZWAgX5CuyF-5SO7iqZ-137" value="" style="edgeStyle=elbowEdgeStyle;elbow=vertical;strokeWidth=4;endArrow=block;endFill=1;fontStyle=1;dashed=1;strokeColor=#23445D;entryX=-0.015;entryY=0.132;entryDx=0;entryDy=0;entryPerimeter=0;" edge="1" parent="1">
          <mxGeometry x="172" y="785.5" width="100" height="100" as="geometry">
            <mxPoint x="1040" y="1180" as="sourcePoint" />
            <mxPoint x="1445.5" y="1214.88" as="targetPoint" />
            <Array as="points">
              <mxPoint x="1210" y="1180" />
              <mxPoint x="1210" y="916" />
            </Array>
          </mxGeometry>
        </mxCell>
        <mxCell id="KgZWAgX5CuyF-5SO7iqZ-138" value="&#xa;&lt;span style=&quot;font-size:12.0pt;line-height:107%;&#xa;font-family:&amp;quot;Times New Roman&amp;quot;,serif;mso-fareast-font-family:&amp;quot;Times New Roman&amp;quot;;&#xa;letter-spacing:-.05pt;mso-ansi-language:EN-IN;mso-fareast-language:EN-IN;&#xa;mso-bidi-language:AR-SA&quot;&gt;visuite-nodemanager&lt;/span&gt;&#xa;&#xa;&#xa;&#xa;" style="shape=ext;double=1;rounded=1;whiteSpace=wrap;html=1;" vertex="1" parent="1">
          <mxGeometry x="1305" y="1220" width="210" height="550" as="geometry" />
        </mxCell>
      </root>
    </mxGraphModel>
  </diagram>
</mxfile>
